<?xml version="1.0" encoding="UTF-8"?>
<!-- Generated by Pixelmator Pro 3.6.5 -->
<svg width="2890" height="606" viewBox="0 0 2890 606" xmlns="http://www.w3.org/2000/svg">
    <path id="-Curves-" fill="#e5e7eb" stroke="none" d="M 2762.100098 519.241028 C 2753.032959 519.241028 2746.76709 515.906982 2743.300049 509.240997 C 2739.833008 502.574005 2739.967041 494.973999 2743.699951 486.44101 L 2766.5 436.040985 L 2698.100098 278.44101 C 2694.366943 269.640991 2694.366943 261.907013 2698.100098 255.240997 C 2701.833008 248.574005 2709.166992 245.240997 2720.100098 245.240997 C 2726.23291 245.240997 2731.166992 246.640991 2734.899902 249.440979 C 2738.633057 252.240997 2741.967041 257.506989 2744.899902 265.240997 L 2792.899902 385.240997 L 2842.100098 264.841003 C 2845.032959 257.373993 2848.5 252.240997 2852.5 249.440979 C 2856.5 246.640991 2861.833008 245.240997 2868.5 245.240997 C 2877.032959 245.240997 2883.032959 248.574005 2886.5 255.240997 C 2889.967041 261.907013 2889.833008 269.506989 2886.100098 278.040985 L 2788.899902 500.040985 C 2785.433105 507.506989 2781.699951 512.573975 2777.699951 515.241028 C 2773.699951 517.906982 2768.5 519.241028 2762.100098 519.241028 Z M 1094.099976 448.040985 C 1049.567017 448.040985 1027.300049 423.106995 1027.300049 373.240997 L 1027.300049 184.041016 C 1027.300049 167.240997 1035.567017 158.841003 1052.099976 158.841003 C 1068.900024 158.841003 1077.300049 167.240997 1077.300049 184.041016 L 1077.300049 370.841003 C 1077.300049 394.841003 1087.300049 406.841003 1107.300049 406.841003 C 1109.432983 406.841003 1111.432983 406.773987 1113.300049 406.640991 C 1115.166992 406.506989 1117.032959 406.307007 1118.900024 406.040985 C 1122.633057 405.506989 1125.166992 406.506989 1126.5 409.040985 C 1127.833008 411.574005 1128.5 416.707001 1128.5 424.44101 C 1128.5 431.106995 1127.166992 436.307007 1124.5 440.040985 C 1121.833008 443.773987 1117.432983 446.040985 1111.300049 446.841003 C 1105.699951 447.640991 1099.967041 448.040985 1094.099976 448.040985 Z M 2389.300049 448.040985 C 2375.166992 448.040985 2362.566895 445.307007 2351.5 439.841003 C 2340.433105 434.373993 2331.76709 426.973999 2325.5 417.640991 C 2319.23291 408.307007 2316.100098 397.773987 2316.100098 386.040985 C 2316.100098 371.640991 2319.833008 360.240997 2327.300049 351.841003 C 2334.76709 343.44101 2346.899902 337.373993 2363.699951 333.640991 C 2380.5 329.907013 2403.032959 328.040985 2431.300049 328.040985 L 2445.300049 328.040985 L 2445.300049 319.640991 C 2445.300049 306.307007 2442.366943 296.707001 2436.5 290.841003 C 2430.633057 284.973999 2420.76709 282.040985 2406.899902 282.040985 C 2399.166992 282.040985 2390.833008 282.973999 2381.899902 284.841003 C 2372.967041 286.707001 2363.566895 289.907013 2353.699951 294.44101 C 2347.300049 297.373993 2341.967041 297.707001 2337.699951 295.44101 C 2333.433105 293.174011 2330.566895 289.574005 2329.100098 284.640991 C 2327.633057 279.707001 2327.899902 274.707001 2329.899902 269.640991 C 2331.899902 264.574005 2335.967041 260.841003 2342.100098 258.44101 C 2354.366943 253.373993 2366.166992 249.773987 2377.5 247.640991 C 2388.833008 245.507019 2399.166992 244.440979 2408.5 244.440979 C 2437.032959 244.440979 2458.23291 251.041016 2472.100098 264.240997 C 2485.967041 277.44101 2492.899902 297.907013 2492.899902 325.640991 L 2492.899902 421.640991 C 2492.899902 438.707001 2485.166992 447.240997 2469.699951 447.240997 C 2453.967041 447.240997 2446.100098 438.707001 2446.100098 421.640991 L 2446.100098 412.841003 C 2441.566895 423.773987 2434.366943 432.373993 2424.5 438.640991 C 2414.633057 444.907013 2402.899902 448.040985 2389.300049 448.040985 Z M 1249.300049 448.040985 C 1227.166992 448.040985 1208.099976 443.907013 1192.099976 435.640991 C 1176.099976 427.373993 1163.766968 415.640991 1155.099976 400.44101 C 1146.432983 385.240997 1142.099976 367.240997 1142.099976 346.44101 C 1142.099976 326.174011 1146.300049 308.44101 1154.699951 293.240997 C 1163.099976 278.040985 1174.699951 266.106995 1189.5 257.44101 C 1204.300049 248.773987 1221.166992 244.440979 1240.099976 244.440979 C 1267.833008 244.440979 1289.766968 253.240997 1305.900024 270.841003 C 1322.032959 288.44101 1330.099976 312.44101 1330.099976 342.841003 C 1330.099976 352.707001 1323.699951 357.640991 1310.900024 357.640991 L 1190.099976 357.640991 C 1193.833008 392.574005 1213.833008 410.040985 1250.099976 410.040985 C 1257.032959 410.040985 1264.833008 409.174011 1273.5 407.44101 C 1282.166992 405.707001 1290.366943 402.707001 1298.099976 398.44101 C 1305.032959 394.44101 1310.900024 393.174011 1315.699951 394.640991 C 1320.5 396.106995 1323.900024 398.973999 1325.900024 403.240997 C 1327.900024 407.506989 1328.166992 412.240997 1326.699951 417.44101 C 1325.233032 422.640991 1321.432983 427.106995 1315.300049 430.841003 C 1305.967041 436.707001 1295.233032 441.040985 1283.099976 443.841003 C 1270.967041 446.640991 1259.699951 448.040985 1249.300049 448.040985 Z M 1816.900024 448.040985 C 1794.766968 448.040985 1775.699951 443.907013 1759.699951 435.640991 C 1743.699951 427.373993 1731.366943 415.640991 1722.699951 400.44101 C 1714.032959 385.240997 1709.699951 367.240997 1709.699951 346.44101 C 1709.699951 326.174011 1713.900024 308.44101 1722.300049 293.240997 C 1730.699951 278.040985 1742.300049 266.106995 1757.099976 257.44101 C 1771.900024 248.773987 1788.766968 244.440979 1807.699951 244.440979 C 1835.432983 244.440979 1857.366943 253.240997 1873.5 270.841003 C 1889.633057 288.44101 1897.699951 312.44101 1897.699951 342.841003 C 1897.699951 352.707001 1891.300049 357.640991 1878.5 357.640991 L 1757.699951 357.640991 C 1761.432983 392.574005 1781.432983 410.040985 1817.699951 410.040985 C 1824.633057 410.040985 1832.432983 409.174011 1841.099976 407.44101 C 1849.766968 405.707001 1857.967041 402.707001 1865.699951 398.44101 C 1872.633057 394.44101 1878.5 393.174011 1883.300049 394.640991 C 1888.099976 396.106995 1891.5 398.973999 1893.5 403.240997 C 1895.5 407.506989 1895.766968 412.240997 1894.300049 417.44101 C 1892.833008 422.640991 1889.032959 427.106995 1882.900024 430.841003 C 1873.567017 436.707001 1862.833008 441.040985 1850.699951 443.841003 C 1838.567017 446.640991 1827.300049 448.040985 1816.900024 448.040985 Z M 2260.899902 448.040985 C 2209.166992 448.040985 2183.300049 422.44101 2183.300049 371.240997 L 2183.300049 286.040985 L 2162.5 286.040985 C 2149.166992 286.040985 2142.5 279.773987 2142.5 267.240997 C 2142.5 254.707001 2149.166992 248.440979 2162.5 248.440979 L 2183.300049 248.440979 L 2183.300049 212.041016 C 2183.300049 195.240997 2191.699951 186.841003 2208.5 186.841003 C 2225.032959 186.841003 2233.300049 195.240997 2233.300049 212.041016 L 2233.300049 248.440979 L 2275.699951 248.440979 C 2289.032959 248.440979 2295.699951 254.707001 2295.699951 267.240997 C 2295.699951 279.773987 2289.032959 286.040985 2275.699951 286.040985 L 2233.300049 286.040985 L 2233.300049 368.44101 C 2233.300049 381.240997 2236.100098 390.841003 2241.699951 397.240997 C 2247.300049 403.640991 2256.366943 406.841003 2268.899902 406.841003 C 2273.433105 406.841003 2277.433105 406.44101 2280.899902 405.640991 C 2284.366943 404.841003 2287.433105 404.307007 2290.100098 404.040985 C 2293.300049 403.773987 2295.967041 404.773987 2298.100098 407.040985 C 2300.23291 409.307007 2301.300049 413.907013 2301.300049 420.841003 C 2301.300049 426.174011 2300.433105 430.907013 2298.699951 435.040985 C 2296.967041 439.174011 2293.833008 442.040985 2289.300049 443.640991 C 2285.833008 444.707001 2281.300049 445.707001 2275.699951 446.640991 C 2270.100098 447.574005 2265.166992 448.040985 2260.899902 448.040985 Z M 2569.300049 447.240997 C 2552.23291 447.240997 2543.699951 438.707001 2543.699951 421.640991 L 2543.699951 270.44101 C 2543.699951 253.640991 2551.833008 245.240997 2568.100098 245.240997 C 2584.366943 245.240997 2592.5 253.640991 2592.5 270.44101 L 2592.5 282.841003 C 2602.100098 259.907013 2622.633057 247.106995 2654.100098 244.440979 C 2665.566895 243.106995 2671.967041 249.640991 2673.300049 264.040985 C 2674.633057 278.174011 2667.699951 286.040985 2652.5 287.640991 L 2643.699951 288.44101 C 2610.899902 291.640991 2594.5 308.44101 2594.5 338.841003 L 2594.5 421.640991 C 2594.5 438.707001 2586.100098 447.240997 2569.300049 447.240997 Z M 1962.099976 447.240997 C 1945.567017 447.240997 1937.300049 438.707001 1937.300049 421.640991 L 1937.300049 270.44101 C 1937.300049 253.640991 1945.432983 245.240997 1961.699951 245.240997 C 1977.967041 245.240997 1986.099976 253.640991 1986.099976 270.44101 L 1986.099976 278.841003 C 1992.766968 267.640991 2001.766968 259.106995 2013.099976 253.240997 C 2024.432983 247.373993 2037.166992 244.440979 2051.300049 244.440979 C 2097.433105 244.440979 2120.5 271.240997 2120.5 324.841003 L 2120.5 421.640991 C 2120.5 438.707001 2112.23291 447.240997 2095.699951 447.240997 C 2078.899902 447.240997 2070.5 438.707001 2070.5 421.640991 L 2070.5 327.240997 C 2070.5 312.040985 2067.633057 300.973999 2061.899902 294.040985 C 2056.166992 287.106995 2047.300049 283.640991 2035.300049 283.640991 C 2020.633057 283.640991 2008.967041 288.240997 2000.300049 297.44101 C 1991.633057 306.640991 1987.300049 318.841003 1987.300049 334.040985 L 1987.300049 421.640991 C 1987.300049 438.707001 1978.900024 447.240997 1962.099976 447.240997 Z M 1395.300049 447.240997 C 1378.766968 447.240997 1370.5 438.707001 1370.5 421.640991 L 1370.5 270.44101 C 1370.5 253.640991 1378.633057 245.240997 1394.900024 245.240997 C 1411.166992 245.240997 1419.300049 253.640991 1419.300049 270.44101 L 1419.300049 278.44101 C 1425.166992 267.773987 1433.300049 259.44101 1443.699951 253.440979 C 1454.099976 247.440979 1466.099976 244.440979 1479.699951 244.440979 C 1509.032959 244.440979 1528.233032 257.240997 1537.300049 282.841003 C 1543.432983 270.841003 1552.233032 261.44101 1563.699951 254.640991 C 1575.166992 247.841003 1588.233032 244.440979 1602.900024 244.440979 C 1646.900024 244.440979 1668.900024 271.240997 1668.900024 324.841003 L 1668.900024 421.640991 C 1668.900024 438.707001 1660.5 447.240997 1643.699951 447.240997 C 1627.166992 447.240997 1618.900024 438.707001 1618.900024 421.640991 L 1618.900024 326.841003 C 1618.900024 311.907013 1616.432983 300.973999 1611.5 294.040985 C 1606.567017 287.106995 1598.233032 283.640991 1586.5 283.640991 C 1573.432983 283.640991 1563.166992 288.240997 1555.699951 297.44101 C 1548.233032 306.640991 1544.5 319.373993 1544.5 335.640991 L 1544.5 421.640991 C 1544.5 438.707001 1536.233032 447.240997 1519.699951 447.240997 C 1502.900024 447.240997 1494.5 438.707001 1494.5 421.640991 L 1494.5 326.841003 C 1494.5 311.907013 1492.032959 300.973999 1487.099976 294.040985 C 1482.166992 287.106995 1473.967041 283.640991 1462.5 283.640991 C 1449.432983 283.640991 1439.166992 288.240997 1431.699951 297.44101 C 1424.233032 306.640991 1420.5 319.373993 1420.5 335.640991 L 1420.5 421.640991 C 1420.5 438.707001 1412.099976 447.240997 1395.300049 447.240997 Z M 820.5 444.040985 C 802.367004 444.040985 793.299988 434.973999 793.299988 416.841003 L 793.299988 189.240997 C 793.299988 171.106995 802.367004 162.041016 820.5 162.041016 L 963.299988 162.041016 C 977.166992 162.041016 984.099976 168.707001 984.099976 182.041016 C 984.099976 195.906982 977.166992 202.841003 963.299988 202.841003 L 842.5 202.841003 L 842.5 280.44101 L 954.5 280.44101 C 968.367004 280.44101 975.299988 287.240997 975.299988 300.841003 C 975.299988 314.44101 968.367004 321.240997 954.5 321.240997 L 842.5 321.240997 L 842.5 403.240997 L 963.299988 403.240997 C 977.166992 403.240997 984.099976 410.040985 984.099976 423.640991 C 984.099976 437.240997 977.166992 444.040985 963.299988 444.040985 L 820.5 444.040985 Z M 2399.699951 413.640991 C 2412.76709 413.640991 2423.633057 409.106995 2432.300049 400.040985 C 2440.967041 390.973999 2445.300049 379.506989 2445.300049 365.640991 L 2445.300049 356.841003 L 2431.699951 356.841003 C 2406.633057 356.841003 2389.23291 358.773987 2379.5 362.640991 C 2369.76709 366.506989 2364.899902 373.506989 2364.899902 383.640991 C 2364.899902 392.44101 2367.967041 399.640991 2374.100098 405.240997 C 2380.23291 410.841003 2388.76709 413.640991 2399.699951 413.640991 Z M 1242.099976 278.44101 C 1227.432983 278.44101 1215.567017 282.973999 1206.5 292.040985 C 1197.432983 301.106995 1191.967041 313.373993 1190.099976 328.841003 L 1288.5 328.841003 C 1287.432983 312.574005 1282.967041 300.106995 1275.099976 291.44101 C 1267.233032 282.773987 1256.233032 278.44101 1242.099976 278.44101 Z M 1809.699951 278.44101 C 1795.032959 278.44101 1783.166992 282.973999 1774.099976 292.040985 C 1765.032959 301.106995 1759.567017 313.373993 1757.699951 328.841003 L 1856.099976 328.841003 C 1855.032959 312.574005 1850.567017 300.106995 1842.699951 291.44101 C 1834.833008 282.773987 1823.833008 278.44101 1809.699951 278.44101 Z"/>
    <g id="Group">
        <path id="Path" fill="none" stroke="#ffffff" stroke-width="100" stroke-linecap="round" stroke-linejoin="round" d="M 633.333008 302.591003 L 487.5 555.18103 L 195.832993 555.18103 L 50 302.591003 L 195.832993 50 L 487.5 50 L 633.333008 302.591003 Z"/>
        <path id="path1" fill="#ffffff" fill-rule="evenodd" stroke="none" d="M 341.666992 302.591003 L 487.5 50 L 195.832993 50 L 50 302.591003 L 195.832993 555.18103 L 487.5 555.18103"/>
        <path id="path2" fill="#fbcfe8" fill-rule="evenodd" stroke="none" d="M 341.666992 302.591003 L 487.5 555.18103 L 633.333008 302.591003 L 487.5 50 L 195.832993 50 L 50 302.591003 L 341.666992 302.591003 Z"/>
        <path id="path3" fill="none" stroke="#e5e7eb" stroke-width="66.669998" stroke-linecap="round" stroke-linejoin="round" d="M 341.666992 302.591003 L 50 302.591003 L 195.832993 50 L 487.5 50 L 633.333008 302.591003 L 487.5 555.18103 L 341.666992 302.591003"/>
        <path id="path4" fill="none" stroke="#111827" stroke-width="66.669998" stroke-linecap="round" stroke-linejoin="round" d="M 341.666992 302.591003 L 487.5 50 L 195.832993 50 L 50 302.591003 L 195.832993 555.18103 L 487.5 555.18103"/>
    </g>
</svg>
